# xmcd
#
# Track frame offsets: 
#        150
#        15614
#        45087
#        66227
#        91051
#        110158
#        130270
#        144680
#        177273
#        212034
#
# Disc length: 3245 seconds
#
# Revision: 0
# Processed by: cddbd v1.5.2PL0 Copyright (c) Steve Scherf et al.
# Submitted via: ExactAudioCopy v0.99pb4
#
DISCID=880cab0a
DTITLE=Martin Moro - Scenes
DYEAR=1996
DGENRE=Folk
TTITLE0=Rag Of Joy
TTITLE1=Amen
TTITLE2=The Snowflake Silence (Live)
TTITLE3=Only Love
TTITLE4=Let Us Be One
TTITLE5=I Can't Have The Blues (Live)
TTITLE6=Easy Swingin'
TTITLE7=Isaiah 43
TTITLE8=Changes
TTITLE9=Born Out Of Wedlock
EXTD=
EXTT0=
EXTT1=
EXTT2=
EXTT3=
EXTT4=
EXTT5=
EXTT6=
EXTT7=
EXTT8=
EXTT9=
PLAYORDER=
